<?xml version="1.0" encoding="utf-8"?>
<!-- Generator: Adobe Illustrator 22.0.1, SVG Export Plug-In . SVG Version: 6.00 Build 0)  -->
<svg version="1.1" id="Modo_de_isolamento" xmlns="http://www.w3.org/2000/svg" xmlns:xlink="http://www.w3.org/1999/xlink" x="0px"
	 y="0px" viewBox="0 0 175 65" style="enable-background:new 0 0 175 65;" xml:space="preserve">
<style type="text/css">
	.st0{fill:#03529F;}
	.st1{fill:#F48120;}
	.st2{fill:#FFFFFF;}
</style>
<g>
	<g>
		<g>
			<path class="st0" d="M77.4,48.9c0-1.3-0.2-2.4-0.5-3.1c-0.3-0.7-1-1-2-1c-1.8,0-2.7,1.9-2.7,5.6c0,1.8,0.3,3.2,0.8,4
				c0.5,0.8,1.3,1.2,2.5,1.2c0.6,0,1.2-0.1,1.9-0.4c0.7-0.2,1.4-0.6,2.1-1.2c0.4,0.2,0.7,0.6,1.1,1.1c0.3,0.5,0.6,1,0.7,1.4
				c-0.8,0.8-1.7,1.4-2.8,1.8c-1.1,0.5-2.3,0.7-3.5,0.7c-2.3,0-4.1-0.8-5.3-2.4c-1.2-1.6-1.8-3.8-1.8-6.6c0-1.4,0.2-2.7,0.6-3.8
				c0.4-1.1,0.9-2,1.6-2.7c0.7-0.7,1.4-1.3,2.3-1.6c0.9-0.4,1.8-0.5,2.7-0.5c1,0,1.9,0.1,2.7,0.4c0.8,0.3,1.5,0.7,2,1.1
				c0.5,0.5,1,1,1.3,1.7c0.3,0.6,0.5,1.3,0.5,2s-0.2,1.3-0.6,1.7c-0.4,0.4-0.9,0.6-1.7,0.6C78.5,49.1,77.9,49,77.4,48.9z"/>
			<path class="st0" d="M83.8,44c0.1-0.4,0.3-0.8,0.6-1.3c0.3-0.4,0.6-0.8,0.9-1c1.8,0.2,3.1,1.2,3.7,3c0.9-2,2.3-3,4.3-3
				c0.7,0,1.4,0.1,2,0.2c0,1.6-0.4,2.9-1.1,4.1c-0.3-0.1-0.9-0.2-1.5-0.2c-1.3,0-2.3,0.7-3.2,2.1v10.7c-0.7,0.1-1.4,0.2-2.2,0.2
				c-0.8,0-1.5-0.1-2.2-0.2V47.4C85,45.9,84.6,44.7,83.8,44z"/>
			<path class="st0" d="M109.7,51.7h-9.3c0.1,1.2,0.4,2.2,0.9,2.9c0.5,0.7,1.4,1.1,2.6,1.1c1.3,0,2.8-0.4,4.5-1.1
				c0.6,0.7,1.1,1.6,1.2,2.7c-1.8,1.3-3.9,1.9-6.4,1.9c-2.4,0-4.2-0.7-5.4-2.2c-1.2-1.5-1.8-3.6-1.8-6.5c0-1.3,0.2-2.6,0.5-3.6
				c0.3-1.1,0.8-2,1.4-2.8c0.6-0.8,1.3-1.4,2.2-1.8c0.9-0.4,1.9-0.6,3-0.6c1.1,0,2.1,0.2,3,0.5c0.9,0.3,1.6,0.8,2.2,1.5
				c0.6,0.6,1.1,1.4,1.4,2.3c0.3,0.9,0.5,1.8,0.5,2.9c0,0.6,0,1.1-0.1,1.6C109.9,50.7,109.8,51.2,109.7,51.7z M103.2,44.7
				c-1.7,0-2.7,1.3-2.8,4h5.6v-0.4c0-1.1-0.2-1.9-0.7-2.6C104.8,45,104.1,44.7,103.2,44.7z"/>
			<path class="st0" d="M112.3,57.4c0-0.5,0.2-1,0.4-1.6c0.3-0.6,0.6-1.1,0.9-1.4c1.8,1,3.3,1.4,4.7,1.4c0.7,0,1.3-0.1,1.8-0.4
				c0.5-0.3,0.7-0.7,0.7-1.2c0-0.8-0.6-1.4-1.8-1.9l-1.9-0.7c-2.8-1-4.2-2.7-4.2-4.9c0-0.8,0.2-1.5,0.5-2.2c0.3-0.6,0.7-1.2,1.3-1.6
				c0.5-0.5,1.2-0.8,2-1.1c0.8-0.2,1.6-0.4,2.6-0.4c0.4,0,0.9,0,1.4,0.1c0.5,0.1,1.1,0.2,1.6,0.3c0.5,0.1,1.1,0.3,1.5,0.4
				c0.5,0.2,0.9,0.3,1.3,0.5c0,0.6-0.1,1.1-0.3,1.7c-0.2,0.6-0.5,1.1-0.9,1.3c-1.8-0.8-3.3-1.2-4.6-1.2c-0.6,0-1,0.1-1.4,0.4
				c-0.3,0.3-0.5,0.6-0.5,1.1c0,0.7,0.6,1.2,1.7,1.6l2,0.7c1.5,0.5,2.6,1.2,3.3,2.1c0.7,0.9,1.1,1.9,1.1,3.1c0,1.6-0.6,2.9-1.8,3.8
				c-1.2,1-2.9,1.4-5.1,1.4C116.2,59.1,114.2,58.5,112.3,57.4z"/>
			<path class="st0" d="M137.1,48.9c0-1.3-0.2-2.4-0.5-3.1c-0.3-0.7-1-1-2-1c-1.8,0-2.7,1.9-2.7,5.6c0,1.8,0.3,3.2,0.8,4
				c0.5,0.8,1.3,1.2,2.5,1.2c0.6,0,1.2-0.1,1.9-0.4c0.7-0.2,1.4-0.6,2.1-1.2c0.4,0.2,0.7,0.6,1.1,1.1c0.3,0.5,0.6,1,0.7,1.4
				c-0.8,0.8-1.7,1.4-2.8,1.8c-1.1,0.5-2.3,0.7-3.5,0.7c-2.3,0-4.1-0.8-5.3-2.4c-1.2-1.6-1.8-3.8-1.8-6.6c0-1.4,0.2-2.7,0.6-3.8
				c0.4-1.1,0.9-2,1.6-2.7c0.7-0.7,1.4-1.3,2.3-1.6c0.9-0.4,1.8-0.5,2.7-0.5c1,0,1.9,0.1,2.7,0.4c0.8,0.3,1.5,0.7,2,1.1
				c0.5,0.5,1,1,1.3,1.7c0.3,0.6,0.5,1.3,0.5,2s-0.2,1.3-0.6,1.7c-0.4,0.4-0.9,0.6-1.7,0.6C138.1,49.1,137.6,49,137.1,48.9z"/>
			<path class="st0" d="M156.8,51.7h-9.3c0.1,1.2,0.4,2.2,0.9,2.9c0.5,0.7,1.4,1.1,2.6,1.1c1.3,0,2.8-0.4,4.5-1.1
				c0.6,0.7,1.1,1.6,1.2,2.7c-1.8,1.3-3.9,1.9-6.4,1.9c-2.4,0-4.2-0.7-5.4-2.2c-1.2-1.5-1.8-3.6-1.8-6.5c0-1.3,0.2-2.6,0.5-3.6
				c0.3-1.1,0.8-2,1.4-2.8c0.6-0.8,1.3-1.4,2.2-1.8c0.9-0.4,1.9-0.6,3-0.6c1.1,0,2.1,0.2,3,0.5c0.9,0.3,1.6,0.8,2.2,1.5
				c0.6,0.6,1.1,1.4,1.4,2.3c0.3,0.9,0.5,1.8,0.5,2.9c0,0.6,0,1.1-0.1,1.6C157,50.7,156.9,51.2,156.8,51.7z M150.3,44.7
				c-1.7,0-2.7,1.3-2.8,4h5.6v-0.4c0-1.1-0.2-1.9-0.7-2.6C152,45,151.3,44.7,150.3,44.7z"/>
			<path class="st0" d="M159.9,44c0.1-0.4,0.3-0.8,0.6-1.3c0.3-0.4,0.6-0.8,0.9-1c1.8,0.2,3.1,1.2,3.7,3c0.9-2,2.3-3,4.3-3
				c0.7,0,1.4,0.1,2,0.2c0,1.6-0.4,2.9-1.1,4.1c-0.3-0.1-0.9-0.2-1.5-0.2c-1.3,0-2.3,0.7-3.2,2.1v10.7c-0.7,0.1-1.4,0.2-2.2,0.2
				s-1.5-0.1-2.2-0.2V47.4C161.1,45.9,160.7,44.7,159.9,44z"/>
		</g>
		<g>
			<path class="st1" d="M75.8,20.8c0.4-0.6,1-0.9,1.9-1c0.2,0.2,0.4,0.4,0.6,0.7c0.2,0.3,0.3,0.6,0.4,0.8c-0.4,0.4-0.6,1-0.6,1.9
				v6.3c0,1.3-0.1,2.4-0.3,3.3c-0.2,0.9-0.5,1.5-0.9,2.1c-0.4,0.5-1,0.9-1.6,1.1c-0.6,0.2-1.4,0.3-2.2,0.3c-1.5,0-2.9-0.3-4.1-0.8
				c0-0.4,0.1-0.8,0.2-1.2c0.1-0.4,0.3-0.8,0.5-1c0.9,0.5,2,0.7,3,0.7c1.7,0,2.5-0.9,2.5-2.7v-0.9c-0.9,0.7-1.8,1-2.8,1
				c-1.3,0-2.3-0.5-3-1.6c-0.7-1-1-2.5-1-4.3c0-0.9,0.1-1.7,0.4-2.5c0.2-0.7,0.5-1.3,0.9-1.8c0.4-0.5,0.9-0.9,1.4-1.2
				c0.5-0.3,1.1-0.4,1.7-0.4C74,19.7,75,20.1,75.8,20.8z M75.1,28v-5.1c-0.6-0.6-1.3-0.9-1.9-0.9c-0.6,0-1.1,0.3-1.4,0.9
				c-0.3,0.6-0.5,1.5-0.5,2.7c0,1.2,0.2,2,0.5,2.6c0.3,0.5,0.7,0.8,1.2,0.8C73.8,29,74.5,28.7,75.1,28z"/>
			<path class="st1" d="M89.6,26.6h-6.2c0,0.8,0.2,1.5,0.6,2c0.3,0.5,0.9,0.7,1.8,0.7c0.9,0,1.9-0.3,3-0.8c0.4,0.5,0.7,1,0.8,1.8
				c-1.2,0.9-2.6,1.3-4.3,1.3c-1.6,0-2.8-0.5-3.6-1.5c-0.8-1-1.2-2.4-1.2-4.4c0-0.9,0.1-1.7,0.3-2.4c0.2-0.7,0.5-1.4,0.9-1.9
				c0.4-0.5,0.9-0.9,1.5-1.2c0.6-0.3,1.3-0.4,2-0.4c0.8,0,1.4,0.1,2,0.4c0.6,0.2,1.1,0.6,1.5,1c0.4,0.4,0.7,0.9,0.9,1.5
				c0.2,0.6,0.3,1.2,0.3,1.9c0,0.4,0,0.7-0.1,1.1C89.7,25.9,89.6,26.2,89.6,26.6z M85.2,21.8c-1.2,0-1.8,0.9-1.9,2.7h3.7v-0.3
				c0-0.7-0.2-1.3-0.5-1.7C86.3,22,85.8,21.8,85.2,21.8z"/>
			<path class="st1" d="M91.6,21.4c0.1-0.3,0.2-0.6,0.4-0.9c0.2-0.3,0.4-0.5,0.6-0.7c1.2,0.2,2.1,0.8,2.5,2c0.6-1.3,1.5-2,2.9-2
				c0.5,0,0.9,0.1,1.4,0.2c0,1.1-0.2,2-0.7,2.8c-0.2-0.1-0.6-0.1-1-0.2c-0.9,0-1.6,0.5-2.1,1.4v7.2c-0.5,0.1-0.9,0.1-1.5,0.1
				c-0.5,0-1,0-1.5-0.1v-7.5C92.5,22.6,92.2,21.9,91.6,21.4z"/>
			<path class="st1" d="M109.9,29.9c-0.1,0.3-0.2,0.6-0.4,0.9c-0.2,0.3-0.4,0.5-0.6,0.7c-1-0.1-1.7-0.5-2.1-1.3
				c-1,0.9-2,1.4-3.2,1.4c-0.6,0-1.1-0.1-1.5-0.3c-0.4-0.2-0.8-0.4-1.1-0.8c-0.3-0.3-0.5-0.7-0.7-1.1c-0.1-0.4-0.2-0.8-0.2-1.3
				c0-0.6,0.1-1.2,0.3-1.7c0.2-0.5,0.5-0.9,0.9-1.2c0.4-0.3,0.9-0.6,1.4-0.7c0.5-0.2,1.1-0.2,1.7-0.2c0.8,0,1.4,0,1.9,0.1v-0.6
				c0-1.1-0.6-1.7-1.7-1.7c-0.8,0-1.9,0.3-3.4,0.8c-0.4-0.5-0.7-1.2-0.8-2.1c1.6-0.7,3.2-1,4.9-1c1.1,0,2.1,0.3,2.8,0.9
				c0.7,0.6,1.1,1.6,1.1,2.9v4.6C109.2,29,109.4,29.5,109.9,29.9z M104.2,29.3c0.8,0,1.5-0.3,2.1-1v-2c-0.2,0-0.5,0-0.7,0
				c-0.2,0-0.4,0-0.7,0c-0.7,0-1.2,0.1-1.5,0.4c-0.3,0.2-0.5,0.7-0.5,1.2c0,0.5,0.1,0.8,0.3,1.1C103.5,29.2,103.8,29.3,104.2,29.3z"
				/>
			<path class="st1" d="M114.7,32.9c0.2-0.6,0.3-1.1,0.5-1.5c-1.3-0.2-2.3-0.8-2.9-1.9c-0.7-1-1-2.4-1-3.9c0-1,0.1-1.9,0.4-2.7
				c0.3-0.8,0.6-1.4,1.1-1.9c0.5-0.5,1-0.9,1.5-1.1c0.6-0.2,1.2-0.4,1.8-0.4c0.7,0,1.3,0.1,1.8,0.3c0.5,0.2,1,0.4,1.4,0.8
				c0.4,0.3,0.7,0.7,0.9,1.1c0.2,0.4,0.3,0.9,0.3,1.4c0,0.5-0.1,0.9-0.4,1.1c-0.2,0.3-0.6,0.4-1.1,0.4c-0.3,0-0.6,0-1.2-0.1
				c0-0.9-0.1-1.6-0.3-2.1c-0.2-0.4-0.7-0.7-1.3-0.7c-1.2,0-1.8,1.2-1.8,3.7c0,1.2,0.2,2.1,0.5,2.7c0.3,0.6,0.9,0.8,1.7,0.8
				c0.4,0,0.8-0.1,1.3-0.2c0.4-0.2,0.9-0.4,1.4-0.8c0.2,0.1,0.5,0.4,0.7,0.7c0.2,0.3,0.4,0.7,0.4,1c-0.9,0.9-2.1,1.5-3.5,1.6
				c-0.1,0.2-0.2,0.3-0.2,0.5c0.7,0,1.2,0.2,1.6,0.6c0.4,0.4,0.6,0.9,0.6,1.5c0,0.3-0.1,0.6-0.2,0.9c-0.2,0.3-0.4,0.5-0.6,0.7
				c-0.3,0.2-0.6,0.4-0.9,0.5c-0.3,0.1-0.7,0.2-1.1,0.2c-0.8,0-1.5-0.2-1.9-0.5c0-0.5,0.2-1,0.5-1.4c0.3,0.2,0.7,0.3,1.1,0.3
				c0.6,0,0.9-0.2,0.9-0.7c0-0.3-0.1-0.5-0.3-0.6c-0.2-0.1-0.4-0.2-0.6-0.2c-0.2,0-0.3,0-0.5,0.1C115,33.3,114.8,33.1,114.7,32.9z"
				/>
			<path class="st1" d="M131.8,29.9c-0.1,0.3-0.2,0.6-0.4,0.9c-0.2,0.3-0.4,0.5-0.6,0.7c-1-0.1-1.7-0.5-2.1-1.3
				c-1,0.9-2,1.4-3.2,1.4c-0.6,0-1.1-0.1-1.5-0.3c-0.4-0.2-0.8-0.4-1.1-0.8c-0.3-0.3-0.5-0.7-0.7-1.1c-0.1-0.4-0.2-0.8-0.2-1.3
				c0-0.6,0.1-1.2,0.3-1.7c0.2-0.5,0.5-0.9,0.9-1.2c0.4-0.3,0.9-0.6,1.4-0.7c0.5-0.2,1.1-0.2,1.7-0.2c0.8,0,1.4,0,1.9,0.1v-0.6
				c0-1.1-0.6-1.7-1.7-1.7c-0.8,0-1.9,0.3-3.4,0.8c-0.4-0.5-0.7-1.2-0.8-2.1c1.6-0.7,3.2-1,4.9-1c1.1,0,2.1,0.3,2.8,0.9
				c0.7,0.6,1.1,1.6,1.1,2.9v4.6C131.1,29,131.4,29.5,131.8,29.9z M126.8,18.3l-1.1-0.5c-0.1-0.1-0.2-0.1-0.3-0.1
				c-0.1,0-0.2-0.1-0.3-0.1c-0.1,0-0.3,0-0.4,0.1c-0.2,0.1-0.3,0.2-0.5,0.4l-0.2,0.3c-0.3,0-0.6-0.1-0.8-0.3
				c-0.3-0.2-0.5-0.4-0.6-0.6l0.2-0.5c0.2-0.6,0.6-1.1,1-1.4c0.5-0.3,1-0.5,1.5-0.5c0.5,0,0.9,0.1,1.3,0.4l1.1,0.6
				c0.1,0.1,0.2,0.1,0.3,0.1c0.1,0,0.2,0.1,0.3,0.1c0.3,0,0.5-0.2,0.9-0.6l0.2-0.3c0.3,0,0.5,0.1,0.8,0.3c0.3,0.2,0.5,0.4,0.6,0.6
				l-0.2,0.4c-0.6,1.2-1.4,1.8-2.4,1.8C127.7,18.7,127.2,18.5,126.8,18.3z M126.1,29.3c0.8,0,1.5-0.3,2.1-1v-2c-0.2,0-0.5,0-0.7,0
				c-0.2,0-0.4,0-0.7,0c-0.7,0-1.2,0.1-1.5,0.4c-0.3,0.2-0.5,0.7-0.5,1.2c0,0.5,0.1,0.8,0.3,1.1C125.4,29.2,125.7,29.3,126.1,29.3z"
				/>
			<path class="st1" d="M141.7,21c1.1,1.1,1.6,2.6,1.6,4.7c0,0.9-0.1,1.7-0.3,2.4c-0.2,0.7-0.6,1.4-1,1.9c-0.4,0.5-1,0.9-1.6,1.2
				c-0.6,0.3-1.3,0.4-2.1,0.4c-0.8,0-1.5-0.1-2.1-0.4c-0.6-0.3-1.2-0.7-1.6-1.2c-0.4-0.5-0.8-1.1-1-1.9c-0.2-0.7-0.3-1.5-0.3-2.4
				c0-1.8,0.4-3.3,1.3-4.3c0.9-1.1,2.1-1.6,3.7-1.6C139.6,19.7,140.8,20.1,141.7,21z M138.2,21.9c-1.3,0-2,1.2-2,3.7
				c0,2.5,0.7,3.7,2,3.7c1.3,0,2-1.2,2-3.7C140.2,23.2,139.5,21.9,138.2,21.9z"/>
		</g>
	</g>
	<g>
		<path class="st1" d="M50.3,38.7c0,9.6-7.8,17.4-17.4,17.4c-9.6,0-17.4-7.8-17.4-17.4c0-9.6,7.8-17.4,17.4-17.4
			C42.5,21.4,50.3,29.1,50.3,38.7z"/>
		<path class="st2" d="M35.1,47.9v-1c0,0,0,0,0,0c2.8-1.2,4.4-2.9,5-5.5c0.1-0.5,0.2-0.9,0.2-0.9c0.2-0.6,0.3-1.5,0.3-2.6
			c0.1-1.3,0-2.8-0.1-3.9c-0.1-3.2-2.7-5.8-6.2-6.3c-0.2,0-0.4-0.1-0.6-0.1c0,0,0,0-0.1,0c-0.2,0-0.5,0-0.7,0c0,0,0,0,0,0
			c0,0,0,0,0,0c0,0,0,0,0,0c0,0,0,0,0,0c0,0,0,0,0,0c0,0,0,0,0,0c-0.3,0-0.5,0-0.7,0c0,0,0,0-0.1,0c-0.2,0-0.4,0-0.6,0.1
			c-0.3,0.1-0.6,0.1-0.9,0.2c-3.1,0.9-5.3,3.3-5.3,6.3c0,0,0,0,0,0c-0.1,1.4,0,3.6,0.2,6.3c0.4,3.1,2.1,5.1,5.2,6.4c0,0,0,0,0,0v1
			c-5.2,0.6-9.1,3.1-9.1,6.2c0,3.5,5.1,6.3,11.4,6.3c6.3,0,11.4-2.8,11.4-6.3C44.3,51.1,40.3,48.5,35.1,47.9z"/>
		<path class="st1" d="M32,62C18.8,62,8,51.2,8,37.9C8,24.6,18.8,13.8,32,13.8c13.3,0,24.1,10.8,24.1,24.1C56.1,51.2,45.3,62,32,62z
			 M32,16.5c-11.8,0-21.4,9.6-21.4,21.4c0,11.8,9.6,21.4,21.4,21.4c11.8,0,21.4-9.6,21.4-21.4C53.5,26.1,43.9,16.5,32,16.5z"/>
		<g>
			<path class="st1" d="M25,1.9c-0.1,0-0.1,0-0.2,0c-1.3,0.1-2.2,1.2-2.1,2.5l0.2,3C23,8.6,24,9.5,25.2,9.5c0.1,0,0.1,0,0.2,0
				c0.6,0,1.2-0.3,1.6-0.8c0.4-0.5,0.6-1.1,0.6-1.7l-0.2-3C27.2,2.9,26.2,1.9,25,1.9z"/>
			<path class="st1" d="M16,6.9c-0.4-0.6-1.1-1-1.9-1c-0.5,0-0.9,0.1-1.3,0.4c-1.1,0.7-1.3,2.2-0.6,3.2l1.7,2.5c0.4,0.6,1.2,1,1.9,1
				c0.1,0,0.1,0,0.2,0c0.4,0,0.8-0.2,1.1-0.4c1.1-0.7,1.3-2.2,0.6-3.2L16,6.9z"/>
			<path class="st1" d="M9.7,16L7,14.7c-0.3-0.2-0.7-0.2-1-0.2c-0.9,0-1.7,0.5-2.1,1.3c-0.6,1.1-0.1,2.5,1.1,3.1l2.7,1.3
				c0.3,0.2,0.7,0.2,1,0.2c0.1,0,0.1,0,0.2,0c0.8-0.1,1.6-0.6,1.9-1.3C11.3,18,10.9,16.6,9.7,16z"/>
			<path class="st1" d="M38.6,4.7c-0.2-0.6-0.6-1.1-1.2-1.3c-0.3-0.2-0.7-0.2-1-0.2c-0.9,0-1.7,0.5-2.1,1.3L33,7.1
				c-0.3,0.6-0.3,1.2-0.1,1.8c0.2,0.6,0.6,1.1,1.2,1.3c0.3,0.2,0.7,0.2,1,0.2h0c0.1,0,0.1,0,0.2,0c0.8-0.1,1.5-0.5,1.9-1.3l1.3-2.7
				C38.7,5.9,38.8,5.3,38.6,4.7z"/>
		</g>
		<path class="st0" d="M57.1,37.5c-0.1-13.6-11.4-24.6-25.3-24.6C17.9,12.9,6.6,24,6.6,37.6c0,12.7,9.8,22.9,22.8,24
			c0.6,0.9,1.6,1.5,2.7,1.5c1.8,0,3.2-1.5,3.2-3.2c0-1.8-1.5-3.2-3.2-3.2c-1.5,0-2.8,1.1-3.2,2.5c-10-1.6-18.2-10.9-18.2-21.5
			c0-11.4,9.5-20.6,21.2-20.6c11.5,0,20.8,8.9,21.1,20c-1.1,0.6-1.8,1.7-1.8,3c0,1.9,1.6,3.5,3.5,3.5c1.9,0,3.5-1.6,3.5-3.5
			C58.2,39,57.8,38.1,57.1,37.5z"/>
	</g>
</g>
</svg>
